<svg width="24" height="22" viewBox="0 0 24 22" fill="none" xmlns="http://www.w3.org/2000/svg">
<path d="M21.4858 11.5065H20.2841V20.3056C20.2841 21.1507 19.5959 21.8393 18.7436 21.8393H12.4137V15.3079C12.4137 14.6888 11.9106 14.188 11.2888 14.188C10.667 14.188 10.1639 14.6888 10.1639 15.3079V21.8393H4.33705C3.48468 21.8393 2.793 21.1507 2.793 20.3021V11.5065H1.59129C0.214921 11.5065 -0.508201 10.2579 0.410546 9.4789L4.77372 5.78537L9.82508 1.51452C10.7438 0.735471 12.3368 0.735471 13.2486 1.51452L18.2999 5.78537L22.6631 9.4789C23.5853 10.2579 22.8622 11.5065 21.4858 11.5065Z" fill="#4D4D4D"/>
</svg>
