<svg width="22" height="25" viewBox="0 0 22 25" fill="none" xmlns="http://www.w3.org/2000/svg">
<path d="M14.7856 15.3097C14.5865 15.2471 14.3699 15.3653 14.3035 15.5601L12.232 21.4551L11.7569 17.6016H12.0748C12.2669 17.6016 12.4206 17.4451 12.4206 17.2573V16.1966C12.4206 16.0053 12.2669 15.8523 12.0748 15.8523H10.3386C10.1499 15.8523 9.99273 16.0053 9.99273 16.1966V17.2573C9.99273 17.4486 10.1465 17.6016 10.3386 17.6016H10.6565L10.1814 21.4551L8.11331 15.5601C8.04345 15.3653 7.83037 15.2471 7.63125 15.3097C5.60163 15.9392 4.05058 17.6921 3.78509 19.8901L3.51959 22.9958C3.43925 23.9418 4.18682 24.7557 5.1405 24.7557L17.2763 24.7696C18.23 24.7696 18.9811 23.9592 18.9007 23.0098L18.6353 19.8901C18.3663 17.6886 16.8152 15.9392 14.7856 15.3097Z" fill="#4D4D4D"/>
<path d="M11.2185 14.6976C13.5381 14.6976 15.4175 12.8265 15.4175 10.5172C15.4175 8.20784 13.5381 6.33673 11.2185 6.33673C8.89893 6.33673 7.01953 8.20784 7.01953 10.5172C7.01953 12.8265 8.89893 14.6976 11.2185 14.6976Z" fill="#4D4D4D"/>
<path d="M20.9194 9.67203H20.0601C19.6583 5.4603 16.2838 2.09717 12.0533 1.69721V0.845131C12.0533 0.379093 11.6726 0 11.2045 0C10.7364 0 10.3556 0.379093 10.3556 0.845131V1.69721C6.12516 2.09717 2.75408 5.4603 2.34885 9.67203H1.4895C1.0214 9.67203 0.640625 10.0511 0.640625 10.5172C0.640625 10.9832 1.0214 11.3623 1.4895 11.3623H2.35235C2.50256 12.9621 3.07897 14.4367 3.97675 15.6749C4.35403 15.2645 4.7977 14.8924 5.27279 14.5759C4.62652 13.6403 4.20032 12.5413 4.06059 11.3588H4.82213C5.29024 11.3588 5.67101 10.9797 5.67101 10.5137C5.67101 10.0476 5.29024 9.66855 4.82213 9.66855H4.06059C4.44835 6.3889 7.06487 3.78047 10.3591 3.39442V4.15608C10.3591 4.62212 10.7399 5.00122 11.208 5.00122C11.6761 5.00122 12.0568 4.62212 12.0568 4.15608V3.39442C15.3476 3.78047 17.9675 6.3889 18.3553 9.66855H17.5938C17.1257 9.66855 16.7449 10.0476 16.7449 10.5137C16.7449 10.9797 17.1257 11.3588 17.5938 11.3588H18.3553C18.2156 12.5413 17.7894 13.6403 17.1396 14.5759C17.6217 14.8924 18.0549 15.2575 18.4392 15.6749C19.337 14.4367 19.9098 12.9621 20.0636 11.3623H20.9229C21.391 11.3623 21.7718 10.9832 21.7718 10.5172C21.7718 10.0511 21.391 9.67203 20.9194 9.67203Z" fill="#4D4D4D"/>
</svg>
