<svg width="25" height="36" viewBox="0 0 25 36" fill="none" xmlns="http://www.w3.org/2000/svg">
<g clip-path="url(#clip0_15_404)">
<path d="M24.426 20.3923H0.572266C0.624711 19.9378 0.681652 19.5749 0.749082 19.1789C0.791038 18.9284 0.83749 18.6644 0.886938 18.354C1.00681 17.61 1.13568 16.9066 1.25556 16.2946L1.25855 16.2766V16.2661C1.25855 16.2601 1.26155 16.2526 1.26155 16.2421C1.26455 16.2376 1.26455 16.2316 1.26455 16.2286L1.45934 15.2807L4.50418 1.58087C4.51616 1.49987 4.55962 1.43088 4.61806 1.37839C4.83383 0.931422 7.34522 0.563953 10.6718 0.463461C11.7656 0.460462 12.9089 0.457462 14.0118 0.454462H14.0148C17.4552 0.539955 20.0955 0.910424 20.3637 1.36339C20.4206 1.40988 20.4656 1.46988 20.4881 1.53887L23.4819 15.0182L23.6677 15.9227C23.7547 16.3576 23.8506 16.8196 23.945 17.3056C23.9465 17.3146 23.948 17.3236 23.9495 17.3326C24.1293 18.2535 24.3031 19.2674 24.426 20.3923Z" fill="#CC1534"/>
<path d="M12.2092 29.726C10.9356 31.6069 9.02505 31.9398 6.77589 31.5649C5.231 31.3069 4.05472 30.3725 3.68311 29.2071C4.16261 29.3286 4.66908 29.4815 5.18604 29.576C5.65805 29.663 6.06413 29.465 6.3803 29.1096C6.64103 28.8216 6.88378 28.5186 7.12652 28.2127C8.43167 26.5538 10.4636 26.4638 11.932 28.0072C12.0399 28.1182 12.1433 28.2366 12.2542 28.3611C12.9105 27.5092 13.7616 27.0532 14.7955 26.9213C15.5942 26.8208 16.288 27.0322 16.8409 27.6202C17.1676 27.9637 17.4733 28.3326 17.7505 28.7151C18.4832 29.72 19.3029 29.8205 20.5376 29.2581C20.6275 29.2161 20.7084 29.1531 20.8882 29.1606C20.659 29.522 20.4686 29.912 20.1944 30.2345C19.5007 31.0549 18.5626 31.4374 17.5242 31.6009C16.1801 31.8124 14.8885 31.6489 13.7496 30.8809C13.1787 30.4985 12.7367 30.209 12.2092 29.726Z" fill="#282828"/>
<path d="M18.3202 25.1199C18.927 25.1199 19.4245 24.619 19.4245 24.001C19.4245 23.3816 18.9285 22.8821 18.3202 22.8821C17.7133 22.8821 17.2158 23.3831 17.2158 24.001C17.2158 24.619 17.7118 25.1199 18.3202 25.1199Z" fill="#282828"/>
<path d="M9.17954 24.424C8.76297 23.3321 7.81446 22.5401 6.72809 22.6121C5.6552 22.6811 4.92247 23.4355 4.63477 24.5695C6.11972 23.83 7.54024 23.6275 9.17954 24.424Z" fill="#282828"/>
<path d="M12.7785 8.67528C11.1182 8.67528 9.53437 8.18482 8.18877 7.25639H8.18278L8.04342 7.1574C7.74823 6.93992 7.6853 6.55895 7.89658 6.26948C8.11235 5.9755 8.51244 5.90051 8.79714 6.09699C11.3685 7.80985 14.3384 7.81585 16.7449 6.11199C17.0506 5.90201 17.4416 5.9605 17.6514 6.23798C17.7518 6.36547 17.7998 6.53196 17.7818 6.69694C17.7623 6.87843 17.6694 7.04491 17.5256 7.1544L17.5136 7.1634C16.12 8.15182 14.4822 8.67528 12.7785 8.67528Z" fill="#FFF1E2"/>
<path d="M24.567 22.3421V23.4925C24.567 30.1475 19.1546 35.5665 12.5015 35.5665C5.84994 35.5665 0.43457 30.1475 0.43457 23.4925C0.43457 23.0681 0.437567 22.6466 0.437567 22.2266C0.464539 21.6912 0.512489 21.1362 0.573925 20.5783C0.579919 20.5168 0.587411 20.4538 0.594904 20.3908C0.641355 19.9843 0.695299 19.5764 0.750741 19.1774C0.905081 18.1035 1.08939 17.0761 1.25721 16.2226L1.26021 16.2046V16.1941C1.26021 16.1881 1.26321 16.1806 1.26321 16.1702C1.26621 16.1657 1.26621 16.1597 1.26621 16.1567L1.461 15.2792L4.50584 1.57937C4.51782 1.49837 4.56128 1.42938 4.61972 1.37688C4.83549 0.929922 7.34688 0.562453 10.6734 0.461961C11.2578 0.443962 11.8692 0.434963 12.497 0.434963C13.0155 0.434963 13.5235 0.440963 14.0134 0.452962H14.0164C17.4569 0.538455 20.0971 0.908924 20.3653 1.36189C20.4223 1.40838 20.4672 1.46838 20.4897 1.53737L23.4836 15.0167L23.6694 15.8537C23.7563 16.2871 23.8522 16.7776 23.9466 17.3056C23.9481 17.3146 23.9496 17.3236 23.9511 17.3326C24.1189 18.276 24.2838 19.3334 24.4036 20.3923C24.4111 20.4538 24.4186 20.5168 24.4246 20.5798C24.4906 21.1752 24.54 21.7692 24.567 22.3421Z" stroke="#232323" stroke-miterlimit="10"/>
<path d="M0.491699 20.3923C3.71934 20.3923 21.0503 20.3923 24.4698 20.3923" stroke="#232323" stroke-miterlimit="10"/>
</g>
<defs>
<clipPath id="clip0_15_404">
<rect width="25" height="36" fill="white"/>
</clipPath>
</defs>
</svg>
