<svg width="21" height="25" viewBox="0 0 21 25" fill="none" xmlns="http://www.w3.org/2000/svg">
<path d="M20.5585 17.0702C20.4678 16.963 20.3788 16.8559 20.2913 16.7525C19.0892 15.327 18.3619 14.4666 18.3619 10.4311C18.3619 8.34179 17.8521 6.6275 16.8473 5.34179C16.1063 4.39196 15.1048 3.67143 13.7846 3.13893C13.7676 3.12966 13.7525 3.11751 13.7398 3.10304C13.265 1.54411 11.9656 0.5 10.5001 0.5C9.03465 0.5 7.73583 1.54411 7.26099 3.10143C7.24832 3.11537 7.23336 3.12714 7.21673 3.13625C4.13605 4.37964 2.63888 6.76518 2.63888 10.4295C2.63888 14.4666 1.91269 15.327 0.709488 16.7509C0.622062 16.8543 0.532996 16.9593 0.442291 17.0686C0.207989 17.3456 0.0595399 17.6826 0.0145112 18.0398C-0.0305175 18.397 0.0297595 18.7593 0.188209 19.0839C0.525346 19.7804 1.24388 20.2127 2.06405 20.2127H18.9422C19.7586 20.2127 20.4722 19.7809 20.8104 19.0877C20.9696 18.763 21.0304 18.4003 20.9858 18.0428C20.9411 17.6852 20.7928 17.3477 20.5585 17.0702ZM10.5001 24.5C11.2897 24.4994 12.0644 24.2892 12.7421 23.8919C13.4197 23.4945 13.975 22.9248 14.3491 22.243C14.3667 22.2104 14.3754 22.1738 14.3743 22.1368C14.3733 22.0999 14.3625 22.0638 14.343 22.0322C14.3236 22.0005 14.2961 21.9744 14.2632 21.9562C14.2304 21.9381 14.1933 21.9285 14.1556 21.9286H6.84572C6.80797 21.9284 6.77084 21.9379 6.73793 21.956C6.70502 21.9741 6.67746 22.0003 6.65793 22.032C6.63839 22.0636 6.62756 22.0997 6.62647 22.1367C6.62539 22.1737 6.6341 22.2103 6.65174 22.243C7.02578 22.9247 7.581 23.4944 8.25853 23.8917C8.93606 24.2891 9.71064 24.4993 10.5001 24.5Z" fill="black"/>
</svg>
