<svg width="25" height="24" viewBox="0 0 25 24" fill="none" xmlns="http://www.w3.org/2000/svg">
<path d="M12.5 21V13M12.5 21L5.44 16.5875C4.98048 16.3003 4.75072 16.1567 4.62536 15.9305C4.5 15.7043 4.5 15.4334 4.5 14.8915V8M12.5 21L16.5 18.5L19.56 16.5875C20.0195 16.3003 20.2493 16.1567 20.3746 15.9305C20.5 15.7043 20.5 15.4334 20.5 14.8915V8M12.5 13L4.5 8M12.5 13L20.5 8M4.5 8L11.44 3.6625C11.9555 3.34033 12.2132 3.17925 12.5 3.17925C12.7868 3.17925 13.0445 3.34033 13.56 3.6625L20.5 8" stroke="#33363F" stroke-width="2" stroke-linejoin="round"/>
<path d="M15.5 14.5C15.5 15.0523 15.9477 15.5 16.5 15.5C17.0523 15.5 17.5 15.0523 17.5 14.5H15.5ZM16.3746 10.5695L17.2493 10.0847L16.3746 10.5695ZM7.97 6.348L15.03 10.7605L16.09 9.0645L9.03 4.652L7.97 6.348ZM17.5 14.5V11.6085H15.5V14.5H17.5ZM15.03 10.7605C15.2757 10.9141 15.4004 10.9932 15.4843 11.0575C15.5512 11.1089 15.527 11.1029 15.5 11.0542L17.2493 10.0847C17.0969 9.80984 16.8951 9.61902 16.701 9.47022C16.5238 9.33438 16.3038 9.19813 16.09 9.0645L15.03 10.7605ZM17.5 11.6085C17.5 11.3564 17.5011 11.0976 17.4798 10.8753C17.4565 10.6319 17.4016 10.3596 17.2493 10.0847L15.5 11.0542C15.473 11.0056 15.4808 10.9818 15.4889 11.0659C15.4989 11.1711 15.5 11.3187 15.5 11.6085H17.5Z" fill="#33363F"/>
</svg>
