<svg width="25" height="19" viewBox="0 0 25 19" fill="none" xmlns="http://www.w3.org/2000/svg">
<path d="M7.17113 17.5785C6.20348 17.4116 5.07514 17.3246 3.90487 17.3246C2.92674 17.3246 2.25253 17.3872 2.24554 17.3872L1.21151 17.4846V2.34186H0.0761719V18.7088H10.6435C9.74921 18.3019 8.47065 17.8046 7.17113 17.5785Z" fill="#4D4D4D"/>
<path d="M23.5097 2.34186V17.4846L22.4757 17.3872C22.4687 17.3872 21.7945 17.3246 20.8163 17.3246C19.6461 17.3246 18.5177 17.4116 17.5501 17.5785C16.2471 17.8011 14.9685 18.2984 14.0742 18.7088H24.6416V2.34186H23.5097Z" fill="#4D4D4D"/>
<path d="M16.827 0.495096C15.0035 0.895054 13.5572 1.54542 12.8516 1.90017V18.2637C13.683 17.8324 15.5065 16.9768 17.4104 16.6499C19.9989 16.2048 22.584 16.4482 22.584 16.4482V0.0812306C22.584 0.0847085 19.4365 -0.078757 16.827 0.495096ZM17.1029 14.6884C16.3379 14.8588 15.5624 15.0883 14.7974 15.3735L14.462 14.4936C15.2655 14.191 16.0864 13.9476 16.8968 13.7667C17.9623 13.5337 19.2269 13.3877 20.6592 13.339L20.6906 14.278C19.3177 14.3302 18.109 14.4693 17.1029 14.6884ZM17.1029 11.913C16.3379 12.0834 15.5624 12.313 14.7974 12.5982L14.462 11.7183C15.2655 11.4157 16.0864 11.1722 16.8968 10.9914C17.9623 10.7584 19.2269 10.6123 20.6592 10.5636L20.6906 11.5026C19.3177 11.5548 18.109 11.6939 17.1029 11.913ZM17.1029 9.14114C16.3379 9.31156 15.5624 9.5411 14.7974 9.82629L14.462 8.94638C15.2655 8.64381 16.0864 8.40035 16.8968 8.2195C17.9623 7.98648 19.2269 7.84041 20.6592 7.79172L20.6906 8.73075C19.3177 8.78292 18.109 8.91856 17.1029 9.14114ZM17.1029 6.36578C16.3379 6.5362 15.5624 6.76574 14.7974 7.05093L14.462 6.17102C15.2655 5.86845 16.0864 5.625 16.8968 5.44414C17.9623 5.21113 19.2269 5.06505 20.6592 5.01636L20.6906 5.9554C19.3177 6.00756 18.109 6.1432 17.1029 6.36578ZM17.1029 3.59043C16.3379 3.76084 15.5624 3.99038 14.7974 4.27557L14.462 3.39566C15.2655 3.09309 16.0864 2.84963 16.8968 2.66878C17.9623 2.43576 19.2269 2.28969 20.6592 2.241L20.6906 3.18003C19.3177 3.2322 18.109 3.36784 17.1029 3.59043Z" fill="#4D4D4D"/>
<path d="M7.93279 0.495098C5.32327 -0.0787549 2.17578 0.0812327 2.17578 0.0812327V16.4482C2.17578 16.4482 4.76434 16.2048 7.34941 16.6499C9.25327 16.9768 11.0733 17.8324 11.9082 18.2637V1.90017C11.2025 1.54543 9.75631 0.898534 7.93279 0.495098ZM7.25858 4.81812C7.59394 4.81812 7.86641 5.0894 7.86641 5.42327C7.86641 5.75715 7.59394 6.02843 7.25858 6.02843C6.92322 6.02843 6.65074 5.75715 6.65074 5.42327C6.65074 5.0894 6.92322 4.81812 7.25858 4.81812ZM9.28121 12.2087H5.50144V11.2696H6.91973V7.41263H5.50144V6.4736H7.86292V11.2696H9.28121V12.2087Z" fill="#4D4D4D"/>
</svg>
